<?xml version="1.0" encoding="UTF-8"?>
<!DOCTYPE svg PUBLIC "-//W3C//DTD SVG 1.1//EN" "http://www.w3.org/Graphics/SVG/1.1/DTD/svg11.dtd">
<!-- Creator: CorelDRAW X7 -->
<svg xmlns="http://www.w3.org/2000/svg" xml:space="preserve" width="10.6013in" height="4.77749in" version="1.1" style="shape-rendering:geometricPrecision; text-rendering:geometricPrecision; image-rendering:optimizeQuality; fill-rule:evenodd; clip-rule:evenodd"
viewBox="0 0 10061 4534"
 xmlns:xlink="http://www.w3.org/1999/xlink">
 <defs>
  <style type="text/css">
   <![CDATA[
    .fil2 {fill:#FF7B28}
    .fil1 {fill:#FF7B28;fill-rule:nonzero}
    .fil0 {fill:#00AE3D;fill-rule:nonzero}
    .fil3 {fill:#EA312C;fill-rule:nonzero}
   ]]>
  </style>
 </defs>
 <g id="Layer_x0020_1">
  <metadata id="CorelCorpID_0Corel-Layer"/>
  <path class="fil0" d="M3375 2270c16,26 27,54 42,81 7,13 5,22 6,36 -60,-61 -88,-114 -159,-173 -192,-163 -403,-208 -648,-165 -170,30 -334,87 -505,118 -37,7 -74,12 -112,15 -139,11 -8,33 38,31 422,-25 878,-221 1255,73 48,37 98,85 131,135 8,13 14,26 21,39 34,68 55,132 62,209 2,53 -1,107 1,160 -5,-1 -11,-2 -17,0 -5,-40 -23,-77 -41,-112 -18,-40 -41,-78 -69,-112 -228,-274 -603,-249 -923,-218 -77,7 -153,14 -231,16 -177,5 -297,1 -466,-56 -166,-58 -264,-168 -371,-303 -15,-19 -23,-30 -30,-54 6,1 11,-1 14,-6 129,160 429,130 605,79 24,-7 47,-14 71,-23 117,-44 241,-96 359,-135 263,-86 496,-77 726,91 107,79 173,162 241,274zm-1509 1716c-37,-67 -59,-170 37,-197 121,-27 212,144 297,215 265,216 634,186 871,-58 65,-69 150,-214 263,-142 75,48 35,152 -6,210 -300,412 -864,489 -1270,184 -79,-59 -142,-127 -192,-212z"/>
  <path class="fil1" d="M2567 1307c81,99 137,158 269,186 54,11 99,12 152,1 31,-4 58,-18 87,-25 12,-4 23,4 32,12 121,121 256,192 427,210 11,1 19,3 29,5 17,10 8,30 5,45 -28,63 -51,128 -78,191 -16,45 -33,88 -50,131 -15,25 -14,59 -39,78 -12,4 -18,-8 -24,-16 -159,-234 -470,-385 -753,-354 -96,10 -187,37 -277,68 -51,17 -100,36 -150,57 -21,10 -37,11 -60,23 -24,11 -50,17 -74,28 -15,7 -33,-2 -37,-17 2,-16 7,-31 8,-48 6,-172 29,-343 38,-515 1,-22 3,-34 9,-55 11,-7 23,3 33,8 20,11 116,27 141,30 80,8 201,0 274,-33 15,-7 22,-9 38,-10z"/>
  <path class="fil1" d="M1942 988c20,39 62,59 95,85 68,39 237,138 308,72 23,-20 15,-46 -17,-56 -62,-19 -125,-10 -199,-34 -42,-13 -74,-20 -116,-39l-10 -4c-19,-11 -39,-21 -61,-24z"/>
  <path class="fil1" d="M4083 1033c-1,74 -2,87 -20,160 -9,29 -26,45 -15,74 61,-70 125,-182 138,-275 27,-212 -81,-414 -267,-516 -126,-70 -259,-100 -403,-95 -9,0 -19,1 -29,1 39,29 117,50 167,74 211,101 382,258 422,499 5,27 6,51 7,78z"/>
  <path class="fil1" d="M2839 2c183,-12 350,30 478,168 38,40 44,89 57,103 23,17 63,-8 95,-13 167,-25 260,-30 421,37 380,156 527,639 307,985 -15,23 -31,45 -48,67 -81,101 -179,168 -300,213 -76,27 -135,32 -213,40 -55,5 -207,-25 -262,-47 -42,-16 -78,-37 -116,-60 -32,-21 -59,-42 -88,-67l-8 -8c-23,-17 -38,-40 -58,-58 -17,-4 -32,6 -46,12 -157,60 -301,28 -414,-97 -26,-29 -32,-54 -58,-80 -210,82 -348,79 -554,-14 -129,-72 -233,-191 -281,-332 -6,-14 -13,-28 -14,-44 -5,-38 -20,-75 -20,-115 1,-49 -3,-98 10,-146 8,-27 7,-56 19,-81 11,-23 14,-50 29,-71 58,-128 164,-233 291,-292 167,-78 369,-74 533,10 7,0 12,-6 18,-9 42,-34 91,-57 140,-77 28,-7 55,-14 82,-24z"/>
  <path class="fil1" d="M696 2675l-462 0 0 296 386 0c35,0 62,8 80,24 17,16 26,38 26,64 0,27 -9,48 -26,64 -18,16 -45,24 -80,24l-386 0 0 381c0,48 -11,84 -33,107 -21,24 -49,35 -83,35 -35,0 -63,-12 -85,-35 -22,-24 -33,-60 -33,-107l0 -890c0,-34 5,-61 15,-82 10,-22 26,-37 47,-47 21,-10 48,-15 81,-15l553 0c37,0 65,9 83,25 18,17 27,39 27,65 0,28 -9,50 -27,67 -18,16 -46,24 -83,24z"/>
  <path class="fil1" d="M1654 3233c0,64 -10,123 -30,177 -20,54 -49,101 -87,140 -38,39 -83,68 -136,89 -52,21 -112,31 -177,31 -66,0 -124,-10 -176,-31 -52,-21 -97,-51 -136,-91 -38,-39 -67,-85 -86,-138 -20,-54 -30,-113 -30,-177 0,-66 10,-125 30,-179 20,-55 49,-101 86,-139 37,-39 83,-68 136,-89 53,-21 111,-31 176,-31 65,0 124,10 177,31 53,21 99,51 137,91 38,38 66,85 86,138 20,54 30,113 30,178zm-217 0c0,-88 -19,-156 -58,-205 -38,-49 -90,-73 -155,-73 -43,0 -79,10 -111,32 -32,22 -57,54 -74,97 -18,42 -27,92 -27,149 0,56 9,105 26,147 17,42 41,75 73,97 32,22 70,33 113,33 65,0 117,-24 155,-73 39,-49 58,-118 58,-204z"/>
  <path class="fil2" d="M2573 3233c0,64 -10,123 -30,177 -20,54 -49,101 -87,140 -38,39 -83,68 -136,89 -52,21 -112,31 -177,31 -66,0 -124,-10 -176,-31 -52,-21 -97,-51 -136,-91 -38,-39 -67,-85 -86,-138 -20,-54 -30,-113 -30,-177 0,-66 10,-125 30,-179 20,-55 49,-101 86,-139 37,-39 83,-68 136,-89 53,-21 111,-31 176,-31 65,0 124,10 177,31 53,21 99,51 137,91 38,38 66,85 86,138 20,54 30,113 30,178zm-576 -203c-3,0 -6,0 -10,0 13,-17 28,-31 45,-43 32,-22 68,-32 111,-32 65,0 117,24 155,73 39,49 58,117 58,205 0,86 -19,155 -58,204 -38,49 -90,73 -155,73 -43,0 -81,-11 -113,-33 -32,-22 -56,-55 -73,-97 -15,-36 -23,-78 -25,-126 19,12 41,19 65,19 67,0 122,-54 122,-122 0,-67 -55,-121 -122,-121z"/>
  <path class="fil2" d="M2857 3253c2,49 11,91 27,127 18,41 42,72 74,93 32,20 66,31 103,31 38,0 73,-10 104,-30 31,-19 56,-50 75,-90 18,-41 28,-92 28,-153 0,-57 -10,-106 -28,-147 -19,-42 -44,-73 -76,-95 -32,-22 -66,-33 -104,-33 -40,0 -75,11 -106,34 -15,11 -29,24 -41,40 4,0 7,0 11,0 67,0 121,54 121,121 0,68 -54,122 -121,122 -25,0 -48,-7 -67,-20zm422 294l0 -21c-28,33 -57,60 -85,81 -28,20 -59,36 -92,47 -32,11 -68,16 -107,16 -52,0 -99,-11 -143,-33 -44,-21 -82,-52 -114,-93 -32,-40 -57,-88 -73,-143 -17,-54 -25,-114 -25,-177 0,-135 33,-240 98,-315 66,-75 153,-113 260,-113 62,0 114,11 157,32 42,22 84,55 124,99l0 -282 0 -2c25,7 43,24 60,42 44,45 86,107 109,166 16,43 35,105 35,151 0,182 0,364 0,545 0,41 -9,72 -28,93 -19,20 -44,30 -74,30 -29,0 -54,-11 -73,-32 -19,-21 -29,-51 -29,-91z"/>
  <path class="fil0" d="M4246 3286l-421 0c1,49 10,92 30,129 19,38 44,66 76,85 32,19 67,28 105,28 26,0 50,-3 71,-9 21,-6 42,-15 62,-28 20,-13 38,-27 55,-42 17,-15 39,-35 66,-60 11,-9 26,-14 47,-14 22,0 40,6 54,18 13,12 20,29 20,51 0,20 -8,42 -23,68 -15,26 -38,51 -69,75 -31,24 -69,44 -116,60 -46,15 -100,23 -160,23 -139,0 -246,-39 -323,-118 -76,-79 -115,-186 -115,-321 0,-64 10,-123 29,-177 18,-55 46,-101 82,-140 37,-39 81,-69 134,-90 53,-20 112,-31 177,-31 84,0 156,18 216,54 61,35 106,81 136,137 30,57 45,114 45,172 0,54 -16,90 -47,106 -31,16 -74,24 -131,24zm-421 -123l390 0c-5,-73 -25,-128 -59,-165 -35,-36 -80,-55 -136,-55 -54,0 -98,19 -132,56 -35,37 -56,92 -63,164z"/>
  <path id="1" class="fil0" d="M4999 3581l-156 -229 -160 229c-23,32 -43,55 -59,69 -16,13 -36,20 -61,20 -27,0 -51,-8 -70,-25 -19,-18 -28,-37 -28,-59 0,-23 14,-55 44,-97l194 -279 -172 -233c-30,-38 -45,-72 -45,-100 0,-22 9,-42 27,-58 17,-16 41,-24 70,-24 25,0 46,7 62,21 17,14 36,37 58,67l140 191 135 -191c23,-31 43,-54 59,-68 17,-13 37,-20 62,-20 28,0 52,8 70,24 19,16 28,35 28,58 0,16 -3,32 -11,47 -8,15 -19,33 -35,53l-173 233 195 279c30,44 46,77 46,99 0,22 -10,42 -29,58 -19,16 -42,24 -70,24 -25,0 -45,-7 -62,-21 -17,-14 -37,-37 -59,-68z"/>
  <path id="2" class="fil0" d="M5521 2916l0 26c40,-50 82,-87 126,-110 44,-24 93,-36 148,-36 66,0 127,17 183,52 56,34 100,84 132,150 33,65 49,143 49,233 0,66 -10,127 -28,182 -19,56 -45,102 -77,140 -33,38 -71,67 -116,87 -44,20 -92,30 -143,30 -61,0 -113,-12 -155,-37 -42,-24 -81,-61 -119,-109l0 324c0,95 -35,142 -104,142 -40,0 -67,-12 -80,-37 -13,-24 -20,-60 -20,-106l0 -930c0,-41 9,-72 27,-92 18,-20 42,-30 73,-30 31,0 56,10 75,31 19,21 29,51 29,90zm421 313c0,-57 -8,-105 -26,-146 -17,-41 -41,-72 -72,-94 -31,-22 -65,-33 -102,-33 -59,0 -109,24 -150,70 -41,47 -61,116 -61,207 0,85 20,152 60,200 41,47 91,71 151,71 36,0 69,-11 99,-31 31,-21 55,-52 74,-94 18,-41 27,-91 27,-150z"/>
  <path id="3" class="fil0" d="M6280 3539l0 -933c0,-43 9,-76 29,-98 19,-22 44,-33 77,-33 32,0 59,11 79,33 20,22 30,54 30,98l0 933c0,44 -11,77 -31,98 -20,22 -46,33 -78,33 -31,0 -57,-11 -77,-34 -19,-22 -29,-55 -29,-97z"/>
  <path id="4" class="fil0" d="M7472 3233c0,64 -10,123 -30,177 -20,54 -49,101 -87,140 -38,39 -83,68 -136,89 -52,21 -112,31 -177,31 -66,0 -124,-10 -176,-31 -52,-21 -98,-51 -136,-91 -38,-39 -67,-85 -86,-138 -20,-54 -30,-113 -30,-177 0,-66 10,-125 30,-179 20,-55 49,-101 86,-139 37,-39 83,-68 136,-89 53,-21 111,-31 176,-31 65,0 124,10 177,31 53,21 99,51 137,91 38,38 66,85 86,138 20,54 30,113 30,178zm-217 0c0,-88 -19,-156 -58,-205 -38,-49 -90,-73 -155,-73 -43,0 -79,10 -111,32 -32,22 -57,54 -74,97 -18,42 -27,92 -27,149 0,56 9,105 26,147 17,42 41,75 73,97 32,22 70,33 113,33 65,0 117,-24 155,-73 39,-49 58,-118 58,-204z"/>
  <path id="5" class="fil0" d="M7803 3360l0 179c0,44 -11,77 -31,98 -21,22 -46,33 -78,33 -31,0 -56,-11 -76,-33 -20,-22 -30,-55 -30,-98l0 -599c0,-97 35,-145 105,-145 35,0 61,11 77,34 15,22 24,56 26,100 25,-44 52,-78 79,-100 27,-23 63,-34 108,-34 45,0 89,11 132,34 42,22 64,53 64,90 0,26 -9,48 -28,65 -18,17 -37,26 -58,26 -8,0 -27,-5 -57,-15 -31,-10 -57,-14 -80,-14 -32,0 -58,8 -78,24 -20,17 -35,42 -46,74 -11,33 -19,71 -23,116 -4,45 -6,100 -6,165z"/>
  <path id="6" class="fil0" d="M8806 3286l-422 0c1,49 11,92 30,129 19,38 45,66 76,85 32,19 67,28 106,28 25,0 49,-3 70,-9 22,-6 42,-15 62,-28 20,-13 38,-27 55,-42 17,-15 39,-35 66,-60 11,-9 27,-14 47,-14 22,0 40,6 54,18 13,12 20,29 20,51 0,20 -8,42 -23,68 -15,26 -38,51 -69,75 -30,24 -69,44 -116,60 -46,15 -100,23 -160,23 -138,0 -246,-39 -322,-118 -77,-79 -115,-186 -115,-321 0,-64 9,-123 28,-177 19,-55 46,-101 83,-140 36,-39 81,-69 134,-90 53,-20 112,-31 176,-31 84,0 157,18 217,54 60,35 105,81 135,137 30,57 45,114 45,172 0,54 -16,90 -47,106 -31,16 -74,24 -130,24zm-422 -123l391 0c-6,-73 -25,-128 -60,-165 -34,-36 -80,-55 -136,-55 -54,0 -98,19 -132,56 -34,37 -55,92 -63,164z"/>
  <path id="7" class="fil0" d="M9326 3360l0 179c0,44 -10,77 -31,98 -20,22 -46,33 -77,33 -31,0 -57,-11 -77,-33 -20,-22 -30,-55 -30,-98l0 -599c0,-97 35,-145 105,-145 35,0 61,11 77,34 16,22 24,56 26,100 26,-44 52,-78 79,-100 27,-23 63,-34 109,-34 45,0 89,11 131,34 43,22 64,53 64,90 0,26 -9,48 -27,65 -18,17 -38,26 -59,26 -8,0 -27,-5 -57,-15 -30,-10 -57,-14 -80,-14 -32,0 -57,8 -77,24 -20,17 -36,42 -47,74 -11,33 -18,71 -23,116 -4,45 -6,100 -6,165z"/>
  <path class="fil1" d="M9562 3396l65 181 69 -189c6,-15 11,-26 16,-32 5,-7 13,-10 24,-10 10,0 19,4 26,10 7,7 11,15 11,24 0,4 -1,8 -2,12 -2,5 -3,9 -5,13 -1,5 -3,9 -5,14l-77 190c-2,6 -5,13 -8,21 -4,8 -7,15 -12,21 -4,6 -9,11 -15,14 -6,4 -14,5 -22,5 -12,0 -21,-2 -27,-8 -7,-5 -12,-10 -15,-16 -3,-7 -9,-19 -16,-37l-76 -188c-2,-4 -4,-9 -6,-14 -2,-4 -3,-9 -4,-14 -2,-5 -2,-9 -2,-12 0,-6 1,-11 5,-17 3,-5 8,-9 13,-13 6,-3 13,-5 19,-5 14,0 23,4 28,11 5,8 10,21 16,39z"/>
  <path id="1" class="fil1" d="M9982 3623l0 -266c-50,38 -83,57 -100,57 -8,0 -16,-3 -22,-9 -6,-7 -9,-15 -9,-23 0,-10 3,-17 9,-22 6,-5 17,-11 33,-18 23,-11 42,-23 56,-35 15,-12 27,-26 38,-41 11,-15 18,-25 21,-28 4,-4 10,-5 19,-5 10,0 19,4 25,11 6,8 9,19 9,33l0 335c0,39 -13,58 -40,58 -12,0 -21,-4 -28,-12 -8,-8 -11,-19 -11,-35z"/>
  <g id="_2432284051664">
   <path class="fil3" d="M3731 4404c-16,12 -30,21 -43,27 -14,6 -29,9 -44,9 -15,0 -28,-4 -38,-10 -10,-6 -18,-15 -23,-26 -4,-11 -6,-23 -5,-36 2,-17 9,-32 20,-44 11,-13 26,-21 44,-25 3,-1 12,-3 27,-6 15,-4 27,-6 38,-9 10,-3 22,-6 34,-10 1,-17 0,-29 -5,-37 -4,-8 -15,-12 -32,-12 -14,0 -25,3 -33,7 -8,5 -15,11 -21,20 -6,9 -11,15 -13,18 -3,3 -7,4 -14,4 -7,0 -12,-2 -16,-6 -4,-5 -6,-11 -5,-18 1,-11 6,-22 14,-33 8,-10 20,-19 36,-26 16,-7 35,-10 57,-10 25,0 44,3 58,10 13,7 22,17 27,31 4,15 5,33 2,57 -1,15 -3,28 -4,38 -1,10 -2,22 -4,35 -1,12 -1,24 1,37 2,13 3,21 3,25 -1,6 -4,12 -10,18 -7,5 -13,8 -20,8 -6,0 -11,-3 -16,-9 -5,-7 -10,-15 -15,-27zm6 -92c-9,3 -21,7 -38,11 -16,4 -27,7 -34,8 -6,2 -12,6 -18,11 -6,5 -10,12 -11,22 -1,9 1,17 7,24 6,7 14,10 25,10 11,0 22,-2 32,-8 10,-6 18,-13 23,-21 6,-10 10,-26 13,-48l1 -9z"/>
   <path id="1" class="fil3" d="M4156 4361c-1,8 -4,17 -10,26 -5,9 -12,17 -22,25 -9,8 -21,15 -35,20 -13,5 -29,7 -45,7 -35,0 -61,-11 -79,-34 -17,-23 -23,-54 -19,-92 3,-26 10,-49 21,-69 11,-20 26,-36 44,-47 19,-10 40,-16 63,-16 15,0 28,2 40,7 12,5 22,11 29,19 8,8 14,16 17,24 4,9 5,17 4,24 0,8 -4,14 -9,20 -6,5 -12,8 -20,8 -4,0 -8,-2 -11,-4 -3,-3 -6,-8 -9,-14 -6,-11 -12,-20 -19,-26 -7,-6 -16,-9 -28,-9 -17,0 -31,7 -43,22 -12,15 -19,35 -22,60 -1,12 -1,23 1,33 1,10 4,19 8,26 4,7 10,12 17,16 6,3 14,5 22,5 12,0 22,-3 30,-9 9,-6 17,-15 25,-27 4,-7 9,-12 13,-16 4,-4 10,-7 16,-7 6,0 12,4 16,9 4,6 5,13 5,19z"/>
   <path id="2" class="fil3" d="M4424 4311c-3,19 -7,36 -14,52 -7,16 -16,30 -28,41 -11,12 -24,20 -38,27 -15,6 -31,9 -48,9 -17,0 -33,-3 -46,-10 -13,-6 -24,-15 -32,-26 -9,-12 -15,-25 -19,-41 -3,-16 -4,-33 -2,-52 2,-20 7,-37 14,-53 7,-16 16,-30 27,-41 11,-11 24,-20 39,-26 14,-6 30,-9 47,-9 17,0 33,3 46,9 13,6 24,15 33,26 9,12 15,25 18,41 4,16 5,34 3,53zm-58 0c3,-26 0,-46 -8,-61 -9,-14 -22,-21 -39,-21 -11,0 -21,3 -30,9 -10,7 -17,16 -23,29 -6,12 -10,27 -12,44 -2,16 -1,31 2,43 3,13 9,22 16,29 8,6 18,10 29,10 17,0 32,-8 43,-22 12,-15 20,-35 22,-60z"/>
   <path id="3" class="fil3" d="M4657 4315l-9 85c-2,13 -6,23 -12,30 -6,6 -14,10 -22,10 -9,0 -16,-4 -20,-10 -5,-7 -6,-17 -5,-30l11 -101c2,-16 3,-29 3,-38 0,-9 -2,-16 -6,-21 -3,-6 -10,-9 -19,-9 -19,0 -32,7 -39,21 -8,15 -13,35 -16,62l-9 86c-2,13 -6,23 -12,30 -6,6 -13,10 -22,10 -9,0 -15,-4 -20,-10 -5,-7 -6,-17 -5,-30l20 -182c1,-12 5,-21 10,-27 6,-6 13,-9 21,-9 8,0 14,2 18,8 5,6 7,14 6,24l-1 6c11,-13 23,-23 35,-29 12,-6 25,-9 38,-9 15,0 27,3 36,10 10,6 17,15 22,28 11,-13 23,-22 34,-29 12,-6 25,-9 38,-9 15,0 28,3 39,10 10,7 18,17 22,30 4,11 4,29 1,54l-13 124c-2,13 -6,23 -12,30 -6,6 -14,10 -22,10 -9,0 -16,-4 -20,-10 -5,-7 -7,-17 -5,-30l11 -107c2,-14 3,-25 3,-33 -1,-8 -3,-15 -7,-21 -4,-5 -10,-8 -20,-8 -7,0 -15,3 -22,8 -7,4 -13,11 -18,20 -5,10 -9,29 -12,56z"/>
   <path id="4" class="fil3" d="M5034 4315l-9 85c-2,13 -5,23 -11,30 -7,6 -14,10 -23,10 -9,0 -15,-4 -20,-10 -4,-7 -6,-17 -5,-30l12 -101c1,-16 2,-29 2,-38 0,-9 -2,-16 -5,-21 -4,-6 -10,-9 -20,-9 -18,0 -31,7 -39,21 -7,15 -13,35 -16,62l-9 86c-1,13 -5,23 -11,30 -6,6 -14,10 -22,10 -9,0 -16,-4 -20,-10 -5,-7 -7,-17 -5,-30l20 -182c1,-12 4,-21 10,-27 6,-6 12,-9 20,-9 8,0 14,2 19,8 4,6 6,14 5,24l-1 6c12,-13 23,-23 35,-29 12,-6 25,-9 39,-9 14,0 26,3 36,10 9,6 17,15 22,28 11,-13 22,-22 34,-29 11,-6 24,-9 37,-9 16,0 29,3 39,10 11,7 18,17 22,30 4,11 4,29 2,54l-14 124c-1,13 -5,23 -11,30 -7,6 -14,10 -23,10 -8,0 -15,-4 -20,-10 -5,-7 -6,-17 -5,-30l12 -107c1,-14 2,-25 2,-33 0,-8 -2,-15 -6,-21 -4,-5 -11,-8 -20,-8 -8,0 -15,3 -22,8 -8,4 -14,11 -18,20 -6,10 -10,29 -13,56z"/>
   <path id="5" class="fil3" d="M5357 4404c-16,12 -30,21 -43,27 -14,6 -29,9 -44,9 -15,0 -28,-4 -38,-10 -10,-6 -18,-15 -22,-26 -5,-11 -7,-23 -5,-36 1,-17 8,-32 19,-44 11,-13 26,-21 44,-25 3,-1 12,-3 27,-6 15,-4 27,-6 38,-9 10,-3 22,-6 34,-10 1,-17 0,-29 -5,-37 -4,-8 -15,-12 -32,-12 -14,0 -25,3 -33,7 -8,5 -15,11 -21,20 -6,9 -11,15 -13,18 -3,3 -7,4 -14,4 -7,0 -12,-2 -16,-6 -4,-5 -6,-11 -5,-18 1,-11 6,-22 14,-33 8,-10 20,-19 36,-26 16,-7 35,-10 57,-10 25,0 44,3 58,10 14,7 22,17 27,31 4,15 5,33 2,57 -1,15 -3,28 -4,38 -1,10 -2,22 -4,35 -1,12 -1,24 1,37 2,13 3,21 3,25 -1,6 -4,12 -10,18 -6,5 -13,8 -20,8 -6,0 -11,-3 -16,-9 -5,-7 -10,-15 -15,-27zm6 -92c-9,3 -21,7 -38,11 -16,4 -27,7 -33,8 -7,2 -13,6 -19,11 -6,5 -10,12 -11,22 -1,9 1,17 7,24 6,7 14,10 25,10 11,0 22,-2 32,-8 10,-6 18,-13 23,-21 6,-10 11,-26 13,-48l1 -9z"/>
   <path id="6" class="fil3" d="M5538 4217l0 7c11,-14 23,-25 36,-32 13,-7 27,-10 42,-10 15,0 28,3 39,10 11,8 19,18 23,31 3,8 5,16 5,26 0,8 -1,20 -2,34l-13 118c-2,13 -5,22 -11,29 -6,6 -13,10 -22,10 -8,0 -15,-4 -19,-10 -5,-7 -6,-16 -5,-29l12 -106c2,-21 1,-37 -3,-48 -4,-11 -14,-16 -29,-16 -10,0 -20,3 -29,10 -9,6 -16,16 -22,28 -3,9 -7,27 -10,53l-8 79c-2,13 -5,23 -11,29 -7,6 -14,10 -22,10 -8,0 -15,-4 -19,-10 -5,-7 -6,-16 -5,-29l20 -183c2,-13 5,-22 10,-28 6,-5 12,-8 21,-8 4,0 9,1 13,3 3,3 6,7 8,12 2,6 2,12 1,20z"/>
   <path id="7" class="fil3" d="M5880 4403l0 -6c-8,10 -17,18 -25,24 -8,6 -16,11 -25,14 -9,3 -19,5 -29,5 -14,0 -26,-4 -37,-10 -11,-6 -20,-16 -27,-28 -7,-11 -12,-25 -15,-42 -2,-16 -3,-33 -1,-52 5,-40 17,-71 37,-93 19,-22 43,-33 72,-33 16,0 30,3 40,9 11,7 21,16 30,29l10 -93c2,-13 5,-23 10,-30 6,-6 13,-10 21,-10 9,0 15,3 19,9 4,6 6,16 4,27l-30 280c-2,13 -5,22 -11,28 -6,6 -12,9 -20,9 -8,0 -14,-3 -19,-10 -4,-6 -6,-15 -4,-27zm-102 -93c-2,17 -1,32 3,44 3,12 9,21 16,27 8,7 17,10 27,10 10,0 19,-3 28,-9 9,-6 16,-15 23,-27 6,-12 10,-27 12,-45 2,-17 1,-31 -3,-43 -3,-13 -9,-22 -17,-28 -7,-7 -16,-10 -26,-10 -11,0 -20,3 -29,10 -9,7 -16,16 -22,28 -6,13 -10,27 -12,43z"/>
   <path id="8" class="fil3" d="M6098 4401l30 -275c1,-13 5,-23 11,-29 5,-7 13,-10 21,-10 9,0 15,3 20,10 4,6 6,16 5,29l-31 275c-1,13 -5,23 -11,29 -6,6 -13,10 -22,10 -8,0 -14,-4 -19,-10 -4,-7 -6,-16 -4,-29z"/>
   <path id="9" class="fil3" d="M6290 4218l-20 183c-1,13 -5,22 -11,29 -6,6 -14,10 -22,10 -8,0 -15,-4 -19,-10 -5,-7 -6,-16 -5,-29l20 -182c2,-12 5,-22 11,-28 6,-6 13,-9 21,-9 9,0 15,3 20,9 5,6 6,15 5,27zm-21 -66c-8,0 -14,-3 -19,-8 -5,-6 -7,-13 -6,-23 1,-9 5,-16 11,-22 6,-6 13,-9 21,-9 7,0 14,3 19,8 5,5 7,13 6,23 -1,10 -5,17 -11,23 -6,5 -13,8 -21,8z"/>
   <path id="10" class="fil3" d="M6401 4217l-1 7c11,-14 23,-25 36,-32 13,-7 27,-10 42,-10 15,0 28,3 39,10 11,8 19,18 23,31 3,8 5,16 5,26 0,8 -1,20 -2,34l-13 118c-2,13 -5,22 -11,29 -6,6 -13,10 -22,10 -8,0 -15,-4 -19,-10 -5,-7 -6,-16 -5,-29l12 -106c2,-21 1,-37 -3,-48 -4,-11 -14,-16 -29,-16 -10,0 -20,3 -29,10 -9,6 -16,16 -21,28 -4,9 -8,27 -10,53l-9 79c-2,13 -5,23 -11,29 -6,6 -14,10 -22,10 -8,0 -15,-4 -19,-10 -5,-7 -6,-16 -5,-29l20 -183c2,-13 5,-22 10,-28 6,-5 12,-8 21,-8 5,0 9,1 13,3 3,3 6,7 8,12 2,6 2,12 2,20z"/>
   <path id="11" class="fil3" d="M6753 4326l-111 0c-1,15 0,28 4,39 3,11 9,19 17,24 8,6 17,9 27,9 7,0 13,-1 19,-3 6,-2 11,-4 17,-8 6,-4 11,-8 16,-12 5,-5 11,-11 19,-18 4,-3 8,-4 13,-4 6,0 11,1 14,5 3,4 4,9 4,15 -1,6 -4,13 -9,20 -5,8 -11,15 -20,22 -9,7 -20,13 -33,18 -13,4 -27,7 -43,7 -37,0 -64,-12 -81,-35 -18,-23 -25,-55 -20,-95 2,-19 6,-36 13,-52 7,-16 16,-30 26,-41 11,-12 24,-21 39,-27 14,-6 30,-9 47,-9 23,0 41,5 56,16 14,10 25,24 31,40 6,17 8,34 6,51 -1,16 -7,27 -15,31 -9,5 -21,7 -36,7zm-107 -36l103 0c1,-22 -2,-38 -10,-49 -8,-10 -20,-16 -34,-16 -15,0 -27,6 -37,17 -10,11 -18,27 -22,48z"/>
   <path id="12" class="fil3" d="M6973 4187l6 0 5 -38c1,-10 2,-18 3,-24 1,-6 3,-11 6,-15 2,-4 6,-8 10,-11 5,-2 10,-4 15,-4 7,0 13,3 18,9 4,4 6,9 6,15 0,6 0,14 -1,25l-5 43 21 0c8,0 14,2 18,7 3,4 5,9 4,16 -1,9 -4,14 -11,18 -6,3 -15,5 -26,5l-11 0 -13 117c-1,10 -1,17 -1,23 0,5 1,9 3,13 3,3 7,5 13,5 3,0 8,-1 14,-2 6,-2 10,-2 13,-2 5,0 9,2 12,6 3,4 4,9 4,15 -1,10 -7,18 -18,24 -10,5 -25,8 -44,8 -18,0 -31,-4 -39,-10 -8,-7 -13,-16 -15,-28 -2,-12 -1,-27 1,-47l13 -122 -7 0c-8,0 -14,-2 -18,-7 -4,-4 -6,-9 -5,-16 1,-7 4,-12 9,-16 5,-5 12,-7 20,-7z"/>
   <path id="13" class="fil3" d="M7320 4311c-2,19 -6,36 -13,52 -7,16 -17,30 -28,41 -11,12 -24,20 -39,27 -14,6 -30,9 -47,9 -18,0 -33,-3 -46,-10 -13,-6 -24,-15 -33,-26 -8,-12 -15,-25 -18,-41 -4,-16 -4,-33 -2,-52 2,-20 6,-37 13,-53 8,-16 17,-30 28,-41 11,-11 24,-20 38,-26 15,-6 31,-9 48,-9 17,0 32,3 46,9 13,6 24,15 33,26 9,12 15,25 18,41 4,16 4,34 2,53zm-57 0c3,-26 0,-46 -9,-61 -8,-14 -21,-21 -38,-21 -11,0 -21,3 -31,9 -9,7 -16,16 -22,29 -6,12 -10,27 -12,44 -2,16 -1,31 2,43 3,13 8,22 16,29 8,6 17,10 29,10 17,0 31,-8 43,-22 12,-15 19,-35 22,-60z"/>
   <path id="14" class="fil3" d="M7578 4311c-2,19 -7,36 -14,52 -7,16 -16,30 -27,41 -11,12 -24,20 -39,27 -14,6 -30,9 -48,9 -17,0 -32,-3 -45,-10 -13,-6 -24,-15 -33,-26 -9,-12 -15,-25 -18,-41 -4,-16 -5,-33 -3,-52 3,-20 7,-37 14,-53 7,-16 16,-30 27,-41 12,-11 24,-20 39,-26 15,-6 31,-9 48,-9 17,0 32,3 45,9 14,6 25,15 34,26 8,12 14,25 18,41 3,16 4,34 2,53zm-57 0c3,-26 0,-46 -9,-61 -9,-14 -21,-21 -39,-21 -11,0 -21,3 -30,9 -9,7 -17,16 -23,29 -6,12 -10,27 -11,44 -2,16 -2,31 2,43 3,13 8,22 16,29 7,6 17,10 28,10 18,0 32,-8 44,-22 12,-15 19,-35 22,-60z"/>
   <path id="15" class="fil3" d="M7613 4401l30 -275c1,-13 5,-23 11,-29 6,-7 13,-10 21,-10 9,0 16,3 20,10 5,6 6,16 5,29l-31 275c-1,13 -5,23 -11,29 -6,6 -13,10 -21,10 -9,0 -15,-4 -20,-10 -4,-7 -6,-16 -4,-29z"/>
   <path id="16" class="fil3" d="M7912 4218l-20 183c-2,13 -5,22 -12,29 -6,6 -13,10 -21,10 -8,0 -15,-4 -19,-10 -5,-7 -6,-16 -5,-29l20 -182c1,-12 5,-22 11,-28 6,-6 13,-9 21,-9 9,0 15,3 20,9 4,6 6,15 5,27zm-21 -66c-8,0 -14,-3 -19,-8 -5,-6 -7,-13 -6,-23 1,-9 4,-16 11,-22 6,-6 13,-9 21,-9 7,0 13,3 19,8 5,5 7,13 6,23 -2,10 -5,17 -11,23 -6,5 -13,8 -21,8z"/>
   <path id="17" class="fil3" d="M8022 4217l0 7c11,-14 23,-25 36,-32 13,-7 27,-10 42,-10 15,0 28,3 39,10 11,8 19,18 23,31 3,8 5,16 5,26 0,8 -1,20 -2,34l-13 118c-2,13 -6,22 -11,29 -6,6 -14,10 -22,10 -8,0 -15,-4 -19,-10 -5,-7 -7,-16 -5,-29l11 -106c3,-21 2,-37 -2,-48 -4,-11 -14,-16 -29,-16 -11,0 -20,3 -29,10 -9,6 -16,16 -22,28 -3,9 -7,27 -10,53l-8 79c-2,13 -6,23 -12,29 -6,6 -13,10 -21,10 -8,0 -15,-4 -19,-10 -5,-7 -6,-16 -5,-29l20 -183c1,-13 5,-22 10,-28 6,-5 12,-8 20,-8 5,0 10,1 13,3 4,3 7,7 9,12 2,6 2,12 1,20z"/>
   <path id="18" class="fil3" d="M8377 4348l-6 53c-1,13 -5,23 -11,29 -6,6 -13,10 -22,10 -8,0 -14,-4 -19,-10 -4,-7 -6,-16 -5,-29l20 -177c3,-28 14,-42 32,-42 10,0 16,3 19,10 4,6 5,16 4,29 8,-13 16,-23 24,-29 8,-7 18,-10 30,-10 12,0 23,3 34,10 10,6 15,15 14,26 -1,8 -4,14 -10,19 -5,5 -10,8 -16,8 -2,0 -7,-2 -15,-4 -7,-3 -14,-5 -20,-5 -9,0 -16,3 -22,8 -5,5 -10,12 -14,21 -4,10 -7,21 -10,35 -3,13 -5,29 -7,48z"/>
   <path id="19" class="fil3" d="M8638 4404l1 -8c-8,9 -16,17 -24,24 -8,6 -17,11 -26,14 -9,4 -20,5 -31,5 -14,0 -26,-3 -36,-9 -10,-7 -18,-15 -22,-27 -6,-13 -7,-32 -4,-58l13 -126c2,-12 5,-22 11,-28 6,-6 13,-9 22,-9 8,0 15,3 19,9 5,6 7,16 5,28l-11 102c-2,15 -2,27 -1,37 1,10 4,18 10,24 5,5 12,8 22,8 10,0 19,-3 28,-9 9,-7 16,-15 22,-25 4,-9 7,-29 11,-59l8 -78c2,-12 5,-22 11,-28 6,-6 14,-9 22,-9 8,0 15,3 19,9 5,6 6,16 5,28l-20 184c-2,13 -5,22 -11,28 -5,6 -12,9 -20,9 -7,0 -14,-3 -18,-10 -4,-6 -6,-15 -5,-26z"/>
   <path id="20" class="fil3" d="M8832 4123l-11 97c12,-12 24,-22 36,-28 12,-7 26,-10 42,-10 19,0 35,5 48,15 13,10 23,25 29,44 5,18 7,41 4,67 -2,19 -6,37 -12,53 -7,16 -14,30 -24,42 -10,12 -21,21 -33,27 -13,6 -26,10 -41,10 -8,0 -17,-1 -24,-4 -7,-2 -14,-5 -19,-9 -5,-4 -9,-8 -12,-12 -4,-4 -8,-10 -13,-18l-1 6c-1,12 -5,21 -11,28 -6,6 -12,9 -20,9 -8,0 -14,-3 -19,-9 -4,-7 -5,-16 -4,-28l31 -277c1,-13 5,-22 10,-29 5,-7 12,-10 20,-10 9,0 16,3 20,10 4,6 5,15 4,26zm-18 189c-3,25 0,45 9,58 9,14 21,21 38,21 15,0 28,-7 39,-21 12,-14 20,-34 23,-60 1,-16 1,-31 -2,-43 -3,-12 -8,-21 -15,-28 -8,-7 -16,-10 -27,-10 -11,0 -21,3 -30,10 -9,7 -17,16 -23,29 -6,12 -10,27 -12,44z"/>
   <path id="21" class="fil3" d="M9057 4448l7 -14 -48 -197c-4,-12 -5,-20 -4,-25 0,-5 2,-10 5,-15 3,-5 7,-9 12,-11 4,-3 9,-4 14,-4 8,0 14,2 17,8 4,6 7,14 9,25l31 157 61 -146c5,-12 9,-21 13,-28 4,-6 7,-11 11,-13 3,-2 8,-3 14,-3 4,0 8,1 12,3 4,3 6,6 8,11 2,4 2,9 2,13 -1,3 -3,8 -4,13 -2,5 -4,11 -7,17l-98 216c-8,20 -16,34 -23,45 -8,11 -17,20 -28,25 -10,6 -24,9 -41,9 -17,0 -29,-2 -37,-6 -8,-4 -11,-11 -10,-22 1,-7 3,-13 8,-17 4,-4 10,-6 18,-6 3,0 6,1 9,2 3,0 6,1 9,1 7,0 12,-1 16,-3 4,-2 8,-6 11,-12 4,-5 8,-13 13,-23z"/>
   <g>
    <path class="fil3" d="M9539 4115c25,-3 50,-7 75,-10 2,0 4,-1 6,-1 -1,2 -3,2 -4,2 -17,4 -34,7 -50,11 -4,1 -8,3 -12,3 -6,-1 -11,-3 -15,-5z"/>
    <path class="fil3" d="M9585 4124c27,-6 54,-12 81,-18 6,16 11,32 17,48 -28,-8 -56,-16 -84,-23 -6,-2 -12,-4 -18,-6 1,0 2,-1 4,-1z"/>
    <path class="fil3" d="M9518 4122c2,0 3,-1 5,-1 8,3 16,6 24,9 -6,14 -13,27 -20,41 -1,1 -2,2 -2,3 -20,18 -40,37 -60,55 -6,5 -12,12 -19,16 -20,11 -41,21 -62,31 -2,1 -4,1 -6,-1 -5,-5 -9,-9 -14,-14 7,-11 14,-21 21,-32 3,-4 6,-8 9,-12 3,-4 8,-8 12,-12 11,-10 22,-20 33,-30 8,-7 15,-15 24,-21 18,-11 37,-21 55,-32z"/>
    <path class="fil3" d="M9558 4133c1,-2 3,-3 4,-2 29,7 57,15 85,22 2,1 5,1 7,3 -2,0 -5,0 -7,1 -36,5 -71,11 -106,16 -1,0 -2,0 -3,0 1,-1 1,-3 2,-4 6,-12 12,-24 18,-36z"/>
    <path class="fil3" d="M9679 4165c2,-1 2,-3 4,-4 0,8 -1,16 -1,25 -3,65 -6,130 -10,196 -1,16 -1,31 -2,47 -7,-8 -11,-16 -17,-25 -20,-34 -40,-68 -61,-102 -1,-1 -1,-4 0,-5 29,-44 58,-88 87,-132z"/>
    <path class="fil3" d="M9541 4183c43,-7 85,-15 128,-22 -28,43 -56,85 -84,127 -15,-35 -29,-70 -44,-105z"/>
    <path class="fil3" d="M9458 4249c25,-22 49,-45 74,-67 14,35 28,70 42,105 -38,-13 -77,-26 -116,-38z"/>
    <path class="fil3" d="M9385 4289c21,-11 41,-22 62,-32 -9,37 -18,74 -27,112 0,2 -1,4 -2,6 -2,-5 -4,-10 -6,-15 -9,-24 -18,-47 -27,-71z"/>
    <path class="fil3" d="M9456 4258c35,11 70,23 105,34 5,1 9,3 14,5 -41,26 -82,53 -124,79 -9,6 -17,12 -27,18 11,-46 22,-91 32,-136z"/>
    <path class="fil3" d="M9359 4271c4,4 8,9 13,13 1,1 2,2 3,4 0,1 0,3 -1,4 -11,26 -22,51 -33,77 0,1 -1,2 -2,3 0,-2 1,-5 1,-7 6,-31 13,-63 19,-94z"/>
    <path class="fil3" d="M9379 4304c0,-1 1,-1 1,-2 12,31 25,63 37,95 -26,1 -52,1 -78,2 14,-32 27,-63 40,-95z"/>
    <path class="fil3" d="M9433 4401c50,-33 101,-65 151,-97 24,40 48,80 72,120 2,3 3,5 5,8 -54,-7 -108,-15 -162,-22 -22,-3 -44,-6 -66,-9z"/>
    <path class="fil3" d="M9403 4408c8,-1 16,-1 24,0 28,4 56,8 84,11 33,5 67,10 100,14 1,0 1,1 2,1 -2,0 -5,0 -7,0 -58,-5 -116,-11 -174,-16 -26,-3 -52,-5 -78,-7 1,-1 2,-2 3,-2 15,0 31,-1 46,-1z"/>
   </g>
  </g>
 </g>
</svg>
